	SONG IN HD : ALL THE THANKS AND CREDITS TO

================ =====================================




Format                           : AVI
Format/Info                      : Audio Video Interleave
File size                        : 71.6 MiB
Duration                         : 4mn 40s
Overall bit rate                 : 2 142 Kbps

Video
ID                               : 0
Format                           : MPEG-4 Visual
Format settings, BVOP            : No
Format settings, QPel            : No
Format settings, GMC             : No warppoints
Format settings, Matrix          : Default (H.263)
Codec ID                         : DX50
Codec ID/Hint                    : DivX 5
Duration                         : 4mn 40s
Bit rate                         : 2 000 Kbps
Width                            : 640 pixels
Height                           : 480 pixels
Display aspect ratio             : 4:3
Frame rate                       : 29.970 fps
Resolution                       : 24 bits
Colorimetry                      : 4:2:0
Scan type                        : Progressive
Bits/(Pixel*Frame)               : 0.217
Stream size                      : 66.8 MiB (93%)
Title                            : Video
Writing library                  : DivX 5.2.1 Alpha (UTC 2004-09-0

Audio
ID                               : 1
Format                           : MPEG Audio
Format version                   : Version 1
Format profile                   : Layer 3
Format_Settings_Mode             : Joint stereo
Codec ID                         : 55
Codec ID/Hint                    : MP3
Duration                         : 4mn 40s
Bit rate mode                    : Variable
Bit rate                         : 128 Kbps
Channel(s)                       : 2 channels
Sampling rate                    : 44.1 KHz
Resolution                       : 16 bits
Stream size                      : 4.28 MiB (6%)
Alignment                        : Aligned on interleaves
Interleave, duration             : 26 ms (0.78 video frame)
Interleave, preload duration     : 492 ms
Title                            : Audio



===============================PLEASE SEED KEEP THE TORRENT ALIVE!====================================

Category:	HD Music Video
Size:	71.56 MB
Files: 	
File Name 	Size
Justin Timberlake - Like i love you-Braveheart2112.avi 	71.56 MB
1 file
Added:	17/04/2010
Uploader:	braveheart2112
Downloaded:	476 times
Info Hash:	f1b53c42d8ee4b5c4fb6b9ac4fed7b547bb017e4
Peers:	
Tracker